<!DOCTYPE svg PUBLIC "-//W3C//DTD SVG 1.1//EN" "http://www.w3.org/Graphics/SVG/1.1/DTD/svg11.dtd">
<!-- Uploaded to: SVG Repo, www.svgrepo.com, Transformed by: SVG Repo Mixer Tools -->
<svg height="800px" width="800px" version="1.1" id="Capa_1" xmlns="http://www.w3.org/2000/svg" xmlns:xlink="http://www.w3.org/1999/xlink" viewBox="-5.92 -5.92 96.38 96.38" xml:space="preserve" fill="#000000" stroke="#000000" transform="matrix(1, 0, 0, 1, 0, 0)rotate(0)" stroke-width="0.0008454100000000001">
<g id="SVGRepo_bgCarrier" stroke-width="0"/>
<g id="SVGRepo_tracerCarrier" stroke-linecap="round" stroke-linejoin="round"/>
<g id="SVGRepo_iconCarrier"> <g> <path style="fill:#ffffff;" d="M84.449,34.955c-0.515-5.05-3.149-9.294-7.219-11.638c-2.137-1.235-4.592-1.882-7.108-1.882 c-0.018,0-0.036,0.004-0.054,0.004C69.901,13.432,65.46,6.625,58.327,4.71c-1.231-0.329-2.502-0.497-3.779-0.497 c-4.62,0-8.972,2.201-12.275,5.805c-3.303-3.604-7.655-5.805-12.275-5.805c-1.278,0-2.548,0.168-3.786,0.497 c-7.129,1.911-11.57,8.722-11.739,16.728c-0.018,0-0.036-0.004-0.054-0.004c-2.516,0-4.975,0.651-7.1,1.879 c-4.076,2.348-6.71,6.592-7.226,11.642c-0.412,4.041,0.569,8.353,2.756,12.147c2.344,4.073,5.808,7.086,9.674,8.672 c-0.734,2.652-1.177,5.39-1.177,8.188c0,15.189,10.142,16.366,13.252,16.366c3.089,0,5.97-0.909,9.019-1.872 c2.895-0.916,5.884-1.865,8.657-1.865c2.774,0,5.766,0.948,8.657,1.865c3.049,0.966,5.93,1.872,9.019,1.872l0,0 c4.527,0,8.321-2.008,10.679-5.655c1.754-2.713,2.573-6.116,2.573-10.712c0-2.799-0.444-5.536-1.177-8.188 c3.869-1.582,7.329-4.595,9.67-8.664C83.88,43.308,84.861,38.996,84.449,34.955z M45.83,21.653c1.521-5.68,6.08-9.394,10.185-8.296 c4.105,1.102,6.195,6.603,4.678,12.279c-1.525,5.676-6.08,9.394-10.185,8.292C46.399,32.829,44.309,27.332,45.83,21.653z M28.526,13.353c4.101-1.099,8.661,2.616,10.185,8.296c1.521,5.68-0.569,11.177-4.674,12.275 c-4.105,1.102-8.661-2.616-10.185-8.292C22.327,19.956,24.421,14.456,28.526,13.353z M10.596,42.635 c-2.602-4.509-2.079-9.688,1.185-11.567c3.26-1.882,8.009,0.247,10.611,4.76c2.609,4.513,2.079,9.692-1.181,11.57 C17.95,49.278,13.198,47.152,10.596,42.635z M42.269,67.644c-12.139,0-21.981,10.493-21.981-3.683 c0-14.179,14.097-25.668,21.981-25.664c7.884,0.004,21.981,11.485,21.981,25.664C64.25,78.138,54.408,67.644,42.269,67.644z M73.941,42.635c-2.602,4.517-7.351,6.642-10.615,4.763c-3.26-1.879-3.79-7.061-1.181-11.57c2.602-4.513,7.351-6.642,10.611-4.76 C76.021,32.947,76.543,38.126,73.941,42.635z"/> </g> </g>
</svg>