<!DOCTYPE svg PUBLIC "-//W3C//DTD SVG 1.1//EN" "http://www.w3.org/Graphics/SVG/1.1/DTD/svg11.dtd">
<!-- Uploaded to: SVG Repo, www.svgrepo.com, Transformed by: SVG Repo Mixer Tools -->
<svg width="800px" height="800px" viewBox="0 0 24 24" fill="none" xmlns="http://www.w3.org/2000/svg" stroke="#ffffff">
<g id="SVGRepo_bgCarrier" stroke-width="0"/>
<g id="SVGRepo_tracerCarrier" stroke-linecap="round" stroke-linejoin="round"/>
<g id="SVGRepo_iconCarrier"> <path fill-rule="evenodd" clip-rule="evenodd" d="M8 3C8 4.10457 7.10457 5 6 5C5.36522 5 4.7995 4.70426 4.43312 4.24305L3.68377 4.49284C3.26354 4.63291 3.04437 4.9938 3.07687 5.34291C3.21171 6.79144 3.57308 9.0342 4.50664 10.8852C5.42593 12.7078 6.80542 14 8.99998 14C11.1945 14 12.574 12.7078 13.4933 10.8852C14.4269 9.0342 14.7883 6.79144 14.9231 5.3429C14.9556 4.9938 14.7365 4.63291 14.3162 4.49284L13.5669 4.24305C13.2005 4.70426 12.6348 5 12 5C10.8954 5 10 4.10457 10 3C10 1.89543 10.8954 1 12 1C12.8308 1 13.5433 1.50659 13.8455 2.22772L14.9487 2.59547C16.1618 2.99985 17.0416 4.16308 16.9145 5.52828C16.7719 7.06027 16.3817 9.59971 15.2791 11.7858C14.2796 13.7674 12.6201 15.5771 9.97404 15.9358C10.0144 16.4923 10.1026 17.1152 10.2753 17.7292C10.5254 18.6186 10.9354 19.4287 11.5733 20.0119C12.1909 20.5765 13.0987 20.9999 14.5001 20.9999C15.9014 20.9999 16.8093 20.5765 17.4268 20.0119C18.0648 19.4286 18.4747 18.6186 18.7249 17.7292C19.0249 16.6625 19.0693 15.5564 19.0521 14.8472C17.8598 14.4504 17 13.3256 17 12C17 10.3431 18.3432 9 20 9C21.6569 9 23 10.3431 23 12C23 13.2868 22.1899 14.3843 21.0518 14.8104C21.0711 15.6368 21.0261 16.9341 20.6502 18.2707C20.3378 19.3812 19.7791 20.5712 18.7764 21.4879C17.7533 22.4233 16.3487 22.9999 14.5001 22.9999C12.6515 22.9999 11.2468 22.4233 10.2238 21.4879C9.22107 20.5712 8.66231 19.3812 8.34997 18.2707C8.11685 17.4418 8.01127 16.6232 7.9691 15.9278C5.35608 15.5511 3.71316 13.7532 2.72091 11.7858C1.61832 9.5997 1.22808 7.06026 1.08548 5.52828C0.958397 4.16308 1.83818 2.99985 3.05131 2.59547L4.15456 2.22772C4.45669 1.50659 5.16919 1 6 1C7.10457 1 8 1.89543 8 3ZM20 13.0283C19.4321 13.0283 18.9717 12.5679 18.9717 12C18.9717 11.4321 19.4321 10.9717 20 10.9717C20.5679 10.9717 21.0283 11.4321 21.0283 12C21.0283 12.5679 20.5679 13.0283 20 13.0283Z" fill="#ffffff"/> </g>
</svg>